<svg width="300" height="150" viewBox="0 0 300 150" fill="none" xmlns="http://www.w3.org/2000/svg">
<g clip-path="url(#clip0_244_1316)">
<rect y="120" width="10" height="20" fill="#7A3045"/>
<rect x="10" y="140" width="280" height="10" fill="#7A3045"/>
<rect x="10" y="120" width="280" height="10" fill="#9E4539"/>
<rect y="10" width="10" height="110" fill="#9E4539"/>
<path d="M10 110H290V120H10V110Z" fill="#CD683D"/>
<path d="M10 10H290V110H10V10Z" fill="#E6904E"/>
<rect x="290" y="10" width="10" height="110" fill="#9E4539"/>
<rect x="10" width="280" height="10" fill="#9E4539"/>
<rect x="10" y="130" width="280" height="10" fill="#7A3045"/>
<path d="M290 120H300V140H290V120Z" fill="#7A3045"/>
<rect y="140" width="10" height="10" fill="#28537D"/>
<rect x="280" y="100" width="10" height="10" fill="#CE7747"/>
<rect x="10" y="10" width="10" height="10" fill="#CE7747"/>
<rect x="280" y="10" width="10" height="10" fill="#CE7747"/>
<rect x="10" y="100" width="10" height="10" fill="#CE7747"/>
<rect x="290" y="140" width="10" height="10" fill="#28537D"/>
<rect x="40" y="55" width="70" height="10" fill="#FBB954"/>
<path d="M45 65H105V75H45V65Z" fill="#FBB954"/>
<path d="M45 45H105V55H45V45Z" fill="#FBB954"/>
<rect x="55" y="75" width="40" height="10" fill="#FBB954"/>
<rect x="55" y="35" width="40" height="10" fill="#FBB954"/>
<rect x="65" y="85" width="20" height="10" fill="#FBB954"/>
<rect x="65" y="25" width="20" height="10" fill="#FBB954"/>
</g>
<defs>
<clipPath id="clip0_244_1316">
<rect width="300" height="150" fill="white"/>
</clipPath>
</defs>
</svg>
