<svg width="300" height="150" viewBox="0 0 300 150" fill="none" xmlns="http://www.w3.org/2000/svg">
<rect y="130" width="10" height="10" fill="#7A3045"/>
<rect x="10" y="130" width="280" height="10" fill="#944338"/>
<rect y="20" width="10" height="110" fill="#7A3045"/>
<path d="M10 20H290V130H10V20Z" fill="#FBB954"/>
<rect x="10" y="20" width="270" height="10" fill="#CD683D"/>
<rect x="280" y="30" width="10" height="90" fill="#CD683D"/>
<rect x="10" y="30" width="10" height="90" fill="#CD683D"/>
<rect x="10" y="120" width="280" height="10" fill="#CD683D"/>
<rect x="290" y="20" width="10" height="110" fill="#7A3045"/>
<rect x="10" y="10" width="280" height="10" fill="#7A3045"/>
<rect x="10" y="140" width="280" height="10" fill="#7A3045"/>
<path d="M290 130H300V140H290V130Z" fill="#7A3045"/>
<rect y="140" width="10" height="10" fill="#28537D"/>
<rect x="280" y="20" width="10" height="10" fill="#CE7747"/>
<rect x="10" y="20" width="10" height="10" fill="#CE7747"/>
<rect x="10" y="20" width="10" height="10" fill="#CE7747"/>
<rect x="290" y="140" width="10" height="10" fill="#28537D"/>
</svg>
