<svg width="300" height="150" viewBox="0 0 300 150" fill="none" xmlns="http://www.w3.org/2000/svg">
<g clip-path="url(#clip0_397_700)">
<rect y="120" width="10" height="20" fill="#165A4C"/>
<rect x="10" y="140" width="280" height="10" fill="#165A4C"/>
<rect x="10" y="120" width="280" height="10" fill="#239063"/>
<rect y="10" width="10" height="110" fill="#239063"/>
<path d="M10 110H290V120H10V110Z" fill="#1DA968"/>
<path d="M10 10H290V110H10V10Z" fill="#1EBC73"/>
<rect x="290" y="10" width="10" height="110" fill="#239063"/>
<rect x="10" width="280" height="10" fill="#239063"/>
<rect x="10" y="130" width="280" height="10" fill="#165A4C"/>
<path d="M290 120H300V140H290V120Z" fill="#165A4C"/>
<rect y="140" width="10" height="10" fill="#28537D"/>
<rect x="280" y="10" width="10" height="10" fill="#CDDF6C" fill-opacity="0.48"/>
<rect x="10" y="10" width="10" height="10" fill="#CDDF6C" fill-opacity="0.48"/>
<rect x="10" y="10" width="10" height="10" fill="#CDDF6C" fill-opacity="0.48"/>
<rect x="280" y="100" width="10" height="10" fill="#CDDF6C" fill-opacity="0.48"/>
<rect x="10" y="100" width="10" height="10" fill="#CDDF6C" fill-opacity="0.48"/>
<rect x="290" y="140" width="10" height="10" fill="#28537D"/>
<rect x="45" y="30" width="60" height="60" fill="#91DB69"/>
</g>
<defs>
<clipPath id="clip0_397_700">
<rect width="300" height="150" fill="white"/>
</clipPath>
</defs>
</svg>
