<svg width="300" height="150" viewBox="0 0 300 150" fill="none" xmlns="http://www.w3.org/2000/svg">
<rect y="130" width="10" height="10" fill="#323353"/>
<rect x="10" y="130" width="280" height="10" fill="#484A77"/>
<rect y="20" width="10" height="110" fill="#484A77"/>
<path d="M10 20H280V130H10V20Z" fill="#8FD3FF"/>
<rect x="10" y="20" width="270" height="10" fill="#4D9BE6"/>
<rect x="280" y="30" width="10" height="90" fill="#4D9BE6"/>
<rect x="10" y="30" width="10" height="90" fill="#4D9BE6"/>
<rect x="35" y="90" width="80" height="10" fill="#4D9BE6"/>
<rect x="10" y="120" width="280" height="10" fill="#4D9BE6"/>
<rect x="45" y="80" width="60" height="10" fill="#4D9BE6"/>
<rect x="290" y="20" width="10" height="110" fill="#484A77"/>
<rect x="10" y="10" width="280" height="10" fill="#484A77"/>
<rect x="10" y="140" width="280" height="10" fill="#323353"/>
<path d="M290 130H300V140H290V130Z" fill="#323353"/>
<rect y="140" width="10" height="10" fill="#28537D"/>
<rect x="280" y="20" width="10" height="10" fill="#4387C9"/>
<rect x="10" y="20" width="10" height="10" fill="#4387C9"/>
<rect x="65" y="60" width="20" height="10" fill="#4D9BE6"/>
<rect x="70" y="50" width="10" height="10" fill="#4D9BE6"/>
<rect x="55" y="70" width="40" height="10" fill="#4D9BE6"/>
<rect x="10" y="20" width="10" height="10" fill="#4387C9"/>
<rect x="290" y="140" width="10" height="10" fill="#28537D"/>
</svg>
