<svg width="300" height="150" viewBox="0 0 300 150" fill="none" xmlns="http://www.w3.org/2000/svg">
<g clip-path="url(#clip0_409_997)">
<path d="M10 10H290V110H10V10Z" fill="#4D9BE6"/>
<rect y="120" width="10" height="20" fill="#323353"/>
<rect x="10" y="140" width="280" height="10" fill="#323353"/>
<rect x="10" y="130" width="280" height="10" fill="#323353"/>
<path d="M290 120H300V140H290V120Z" fill="#323353"/>
<rect y="140" width="10" height="10" fill="#28537D"/>
<path d="M10 110H290V120H10V110Z" fill="#4D65B4"/>
<path d="M10 120H290V130H10V120Z" fill="#484A77"/>
<path d="M0 10H10V120L0 120V10Z" fill="#484A77"/>
<path d="M290 10H300V120L290 120V10Z" fill="#484A77"/>
<path d="M10 0H290V10H10V0Z" fill="#484A77"/>
<path d="M280 100H290V110L280 110V100Z" fill="#4387C9"/>
<path d="M10 10H20V20H10V10Z" fill="#4387C9"/>
<path d="M280 10H290V20H280V10Z" fill="#4387C9"/>
<path d="M10 100H20V110L10 110V100Z" fill="#4387C9"/>
<rect x="290" y="140" width="10" height="10" fill="#28537D"/>
</g>
<defs>
<clipPath id="clip0_409_997">
<rect width="300" height="150" fill="white"/>
</clipPath>
</defs>
</svg>
