<svg width="300" height="150" viewBox="0 0 300 150" fill="none" xmlns="http://www.w3.org/2000/svg">
<g clip-path="url(#clip0_397_655)">
<rect y="120" width="10" height="20" fill="#323353"/>
<rect x="10" y="140" width="280" height="10" fill="#323353"/>
<rect x="10" y="120" width="280" height="10" fill="#484A77"/>
<rect y="10" width="10" height="110" fill="#484A77"/>
<path d="M10 110H290V120H10V110Z" fill="#4D65B4"/>
<path d="M10 10H290V110H10V10Z" fill="#4D9BE6"/>
<rect x="35" y="80" width="80" height="10" fill="#8FD3FF"/>
<rect x="45" y="70" width="60" height="10" fill="#8FD3FF"/>
<rect x="290" y="10" width="10" height="110" fill="#484A77"/>
<rect x="10" width="280" height="10" fill="#484A77"/>
<rect x="10" y="130" width="280" height="10" fill="#323353"/>
<path d="M290 120H300V140H290V120Z" fill="#323353"/>
<rect y="140" width="10" height="10" fill="#28537D"/>
<rect x="280" y="100" width="10" height="10" fill="#4387C9"/>
<rect x="10" y="10" width="10" height="10" fill="#4387C9"/>
<rect x="280" y="10" width="10" height="10" fill="#4387C9"/>
<rect x="65" y="50" width="20" height="10" fill="#8FD3FF"/>
<rect x="70" y="40" width="10" height="10" fill="#8FD3FF"/>
<rect x="55" y="60" width="40" height="10" fill="#8FD3FF"/>
<rect x="10" y="100" width="10" height="10" fill="#4387C9"/>
<rect x="290" y="140" width="10" height="10" fill="#28537D"/>
</g>
<defs>
<clipPath id="clip0_397_655">
<rect width="300" height="150" fill="white"/>
</clipPath>
</defs>
</svg>
