<svg width="300" height="150" viewBox="0 0 300 150" fill="none" xmlns="http://www.w3.org/2000/svg">
<rect y="130" width="10" height="10" fill="#831C5D"/>
<rect x="10" y="130" width="280" height="10" fill="#C32454"/>
<rect y="20" width="10" height="110" fill="#831C5D"/>
<path d="M20 30H280V120H20V30Z" fill="#FDCBB0"/>
<rect x="10" y="20" width="280" height="10" fill="#F04F78"/>
<rect x="280" y="30" width="10" height="90" fill="#F04F78"/>
<rect x="10" y="30" width="10" height="90" fill="#F04F78"/>
<rect x="10" y="120" width="280" height="10" fill="#F04F78"/>
<rect x="290" y="20" width="10" height="110" fill="#831C5D"/>
<rect x="10" y="10" width="280" height="10" fill="#831C5D"/>
<rect x="10" y="140" width="280" height="10" fill="#831C5D"/>
<path d="M290 130H300V140H290V130Z" fill="#831C5D"/>
<rect y="140" width="10" height="10" fill="#28537D"/>
<rect x="280" y="20" width="10" height="10" fill="#C32454"/>
<rect x="10" y="20" width="10" height="10" fill="#C32454"/>
<rect x="10" y="20" width="10" height="10" fill="#C32454"/>
<rect x="290" y="140" width="10" height="10" fill="#28537D"/>
</svg>
