<svg width="100%" height="100%" viewBox="0 0 300 150" fill="none" xmlns="http://www.w3.org/2000/svg" preserveAspectRatio="none">
  <g clip-path="url(#clip0_411_1219)">
    <rect width="300" height="150" fill="#1EBC73"/>
    <rect x="290" y="140" width="10" height="10" fill="#28537D"/>
    <rect y="120" width="10" height="20" fill="#165A4C"/>
    <rect x="10" y="140" width="280" height="10" fill="#165A4C"/>
    <rect x="10" y="120" width="280" height="10" fill="#239063"/>
    <rect y="10" width="10" height="110" fill="#239063"/>
    <path d="M10 110H290V120H10V110Z" fill="#1DA968"/>
    <rect x="290" y="10" width="10" height="110" fill="#239063"/>
    <rect x="10" width="280" height="10" fill="#239063"/>
    <rect x="10" y="130" width="280" height="10" fill="#165A4C"/>
    <path d="M290 120H300V140H290V120Z" fill="#165A4C"/>
    <rect y="140" width="10" height="10" fill="#28537D"/>
    <rect x="280" y="10" width="10" height="10" fill="#CDDF6C" fill-opacity="0.48"/>
    <rect x="10" y="10" width="10" height="10" fill="#CDDF6C" fill-opacity="0.48"/>
    <rect x="280" y="100" width="10" height="10" fill="#CDDF6C" fill-opacity="0.48"/>
    <rect x="10" y="100" width="10" height="10" fill="#CDDF6C" fill-opacity="0.48"/>
  </g>
  <defs>
    <clipPath id="clip0_411_1219">
      <rect width="300" height="150" fill="white"/>
    </clipPath>
  </defs>
</svg>
